<?xml version="1.0" encoding="utf-8"?>
<!-- Generator: Adobe Illustrator 16.0.0, SVG Export Plug-In . SVG Version: 6.00 Build 0)  -->
<!DOCTYPE svg PUBLIC "-//W3C//DTD SVG 1.1//EN" "http://www.w3.org/Graphics/SVG/1.1/DTD/svg11.dtd">
<svg version="1.1" id="Layer_1" xmlns="http://www.w3.org/2000/svg" xmlns:xlink="http://www.w3.org/1999/xlink" x="0px" y="0px"
	 width="140.625px" height="46.148px" viewBox="0 0 140.625 46.148" enable-background="new 0 0 140.625 46.148"
	 xml:space="preserve">
<path fill="#1E0EAF" d="M120.762,13.147h7.54v32.848h-7.426v-1.286c-2.449,0.96-5.468,1.439-9.055,1.439
	c-11.012,0-16.52-4.396-16.52-13.186V26.37c0-8.791,5.508-13.186,16.52-13.186c3.561,0,6.542,0.467,8.94,1.402V13.147z
	 M116.747,32.963V26.37c0-2.198-1.642-3.296-4.926-3.296c-3.309,0-4.963,1.098-4.963,3.296v6.593c0,2.196,1.654,3.296,4.963,3.296
	C115.105,36.257,116.747,35.159,116.747,32.963z M136.6,39.289c0.379,0,0.809,0.088,1.288,0.266
	c0.456,0.229,0.807,0.467,1.061,0.722c0.253,0.229,0.491,0.565,0.719,1.022c0.177,0.479,0.267,0.922,0.267,1.325
	s-0.087,0.847-0.267,1.325c-0.176,0.428-0.415,0.784-0.719,1.061c-0.354,0.328-0.708,0.557-1.061,0.682
	c-0.379,0.177-0.809,0.267-1.288,0.267s-0.909-0.088-1.289-0.267c-0.354-0.125-0.707-0.354-1.06-0.682
	c-0.278-0.276-0.518-0.633-0.719-1.061c-0.178-0.48-0.269-0.922-0.269-1.325s0.089-0.846,0.269-1.325
	c0.225-0.457,0.464-0.797,0.719-1.022c0.251-0.254,0.607-0.493,1.06-0.722C135.789,39.377,136.221,39.289,136.6,39.289z
	 M136.79,40.691c0.908,0,1.364,0.365,1.364,1.098c0,0.353-0.101,0.606-0.302,0.758c-0.15,0.151-0.392,0.253-0.722,0.303l1.099,1.703
	h-0.607l-1.058-1.666h-0.646v1.666h-0.567v-3.863L136.79,40.691L136.79,40.691z M135.918,41.184v1.251l0.986-0.039l0.341-0.075
	l0.229-0.189c0.049-0.076,0.077-0.205,0.077-0.379c0-0.152-0.027-0.252-0.077-0.303l-0.188-0.189l-0.267-0.076H135.918z
	 M137.661,40.01c-0.331-0.151-0.683-0.229-1.062-0.229c-0.354,0-0.707,0.077-1.061,0.229c-0.379,0.177-0.671,0.379-0.87,0.606
	c-0.279,0.277-0.468,0.583-0.568,0.909c-0.151,0.354-0.229,0.72-0.229,1.099c0,0.429,0.077,0.808,0.229,1.136
	c0.101,0.304,0.291,0.595,0.568,0.873c0.199,0.228,0.491,0.428,0.87,0.607c0.354,0.15,0.708,0.226,1.061,0.226
	c0.379,0,0.732-0.075,1.062-0.226c0.379-0.178,0.669-0.38,0.869-0.607c0.252-0.228,0.442-0.519,0.568-0.873
	c0.15-0.328,0.229-0.707,0.229-1.136c0-0.379-0.078-0.745-0.229-1.099c-0.101-0.379-0.291-0.682-0.568-0.909
	C138.33,40.389,138.04,40.187,137.661,40.01z M54.005,26.295c0-2.199-1.641-3.297-4.926-3.297c-3.309,0-4.963,1.098-4.963,3.297
	v6.593c0,2.221,1.654,3.334,4.963,3.334c3.285,0,4.926-1.113,4.926-3.334V26.295z M65.561,32.885
	c0,8.816-5.493,13.224-16.481,13.224c-10.987,0-16.481-4.409-16.481-13.224v-6.592c0-8.789,5.493-13.186,16.481-13.186
	s16.481,4.396,16.481,13.186V32.885z M66.016,13.185h7.576l9.17,16.482l-9.207,16.481h-7.539l8.827-16.481L66.016,13.185z
	 M77.724,13.185h1.362l8.905,16.558l-8.905,16.403h-1.362l8.902-16.403L77.724,13.185z M75.031,13.185h1.365l8.94,16.558
	l-8.94,16.403h-1.365l8.943-16.403L75.031,13.185z M80.184,12.541V0h11.558v46.148l-10.684-0.115l8.41-16.443L80.184,12.541z
	 M21.574,23.793v22.355H10.055V23.793H1l0.076-9.888h29.439l0.076,9.888H21.574z"/>
</svg>
